<svg width="1200" height="835" viewBox="-40 18 13068 9094" xmlns="http://www.w3.org/2000/svg" xmlns:xlink="http://www.w3.org/1999/xlink" overflow="hidden"><defs><clipPath id="clip0"><rect x="-40" y="18" width="13068" height="9094"/></clipPath></defs><g clip-path="url(#clip0)" transform="translate(40 -18)"><path d="M12068.5 3221.5 12068.5 3722.29 12210.9 3722.29" stroke="#125675" stroke-width="6" stroke-miterlimit="8" fill="none" fill-rule="evenodd"/><path d="M7912.5 2402.5 7912.5 2655.5 12448.2 2655.5 12448.2 2746.88" stroke="#0E4B66" stroke-width="6" stroke-miterlimit="8" fill="none" fill-rule="evenodd"/><path d="M10936.5 3221.5 10936.5 5670.22 11078.9 5670.22" stroke="#125675" stroke-width="6" stroke-miterlimit="8" fill="none" fill-rule="evenodd"/><path d="M10936.5 3221.5 10936.5 5020.61 11078.9 5020.61" stroke="#125675" stroke-width="6" stroke-miterlimit="8" fill="none" fill-rule="evenodd"/><path d="M10936.5 3221.5 10936.5 4371.01 11078.9 4371.01" stroke="#125675" stroke-width="6" stroke-miterlimit="8" fill="none" fill-rule="evenodd"/><path d="M10936.5 3221.5 10936.5 3721.4 11078.9 3721.4" stroke="#125675" stroke-width="6" stroke-miterlimit="8" fill="none" fill-rule="evenodd"/><path d="M7912.5 2402.5 7912.5 2655.5 11316 2655.5 11316 2746.88" stroke="#0E4B66" stroke-width="6" stroke-miterlimit="8" fill="none" fill-rule="evenodd"/><path d="M9803.5 3221.5 9803.5 4371.01 9921.46 4371.01" stroke="#125675" stroke-width="6" stroke-miterlimit="8" fill="none" fill-rule="evenodd"/><path d="M9803.5 3221.5 9803.5 3721.4 9945.92 3721.4" stroke="#125675" stroke-width="6" stroke-miterlimit="8" fill="none" fill-rule="evenodd"/><path d="M7912.5 2402.5 7912.5 2655.5 10183.8 2655.5 10183.8 2746.88" stroke="#0E4B66" stroke-width="6" stroke-miterlimit="8" fill="none" fill-rule="evenodd"/><path d="M8665.5 3224.5 8665.5 4370.6 8808.94 4370.6" stroke="#125675" stroke-width="6" stroke-miterlimit="8" fill="none" fill-rule="evenodd"/><path d="M8665.5 3224.5 8665.5 3720.99 8808.94 3720.99" stroke="#125675" stroke-width="6" stroke-miterlimit="8" fill="none" fill-rule="evenodd"/><path d="M7912.5 2402.5 7912.5 2655.5 9048.13 2655.5 9048.13 2746.88" stroke="#0E4B66" stroke-width="6" stroke-miterlimit="8" fill="none" fill-rule="evenodd"/><path d="M7526.5 3224.5 7526.5 5669.81 8788.29 5669.81" stroke="#125675" stroke-width="6" stroke-miterlimit="8" fill="none" fill-rule="evenodd"/><path d="M7526.5 3224.5 7526.5 5669.81 7669.94 5669.81" stroke="#125675" stroke-width="6" stroke-miterlimit="8" fill="none" fill-rule="evenodd"/><path d="M7526.5 3224.5 7526.5 5020.2 7669.94 5020.2" stroke="#125675" stroke-width="6" stroke-miterlimit="8" fill="none" fill-rule="evenodd"/><path d="M7526.5 3224.5 7526.5 4370.6 7669.94 4370.6" stroke="#125675" stroke-width="6" stroke-miterlimit="8" fill="none" fill-rule="evenodd"/><path d="M7526.5 3224.5 7526.5 3720.99 7669.94 3720.99" stroke="#125675" stroke-width="6" stroke-miterlimit="8" fill="none" fill-rule="evenodd"/><path d="M7912.41 2402.5 7912.41 2655.5 7909 2655.5 7909 2746.88" stroke="#0E4B66" stroke-width="6" stroke-miterlimit="8" fill="none" fill-rule="evenodd"/><path d="M7912.55 2402.5 7912.55 2655.5 6773.5 2655.5 6773.5 2746.88" stroke="#0E4B66" stroke-width="6" stroke-miterlimit="8" fill="none" fill-rule="evenodd"/><path d="M7912.77 2402.5 7912.77 2655.5 5641.5 2655.5 5641.5 2746.88" stroke="#0E4B66" stroke-width="6" stroke-miterlimit="8" fill="none" fill-rule="evenodd"/><path d="M7911.99 2402.5 7911.99 2655.5 4508.5 2655.5 4508.5 2746.88" stroke="#0E4B66" stroke-width="6" stroke-miterlimit="8" fill="none" fill-rule="evenodd"/><path d="M6049.5 3916.5 6049.5 4371 6166.43 4371" stroke="#125675" stroke-width="6" stroke-miterlimit="8" fill="none" fill-rule="evenodd"/><path d="M3376.5 3221.5 3376.5 3434.92 6360.79 3434.92 6360.79 3526.3" stroke="#125675" stroke-width="6" stroke-miterlimit="8" fill="none" fill-rule="evenodd"/><path d="M5086.5 3916.5 5086.5 4371 5203.43 4371" stroke="#125675" stroke-width="6" stroke-miterlimit="8" fill="none" fill-rule="evenodd"/><path d="M3376.5 3221.5 3376.5 3434.92 5398.51 3434.92 5398.51 3526.3" stroke="#125675" stroke-width="6" stroke-miterlimit="8" fill="none" fill-rule="evenodd"/><path d="M4124.5 4566.5 4124.5 6320.21 4241.43 6320.21" stroke="#125675" stroke-width="6" stroke-miterlimit="8" fill="none" fill-rule="evenodd"/><path d="M4124.5 4566.5 4124.5 5670.6 4241.43 5670.6" stroke="#125675" stroke-width="6" stroke-miterlimit="8" fill="none" fill-rule="evenodd"/><path d="M4124.5 4566.5 4124.5 5021 4241.43 5021" stroke="#125675" stroke-width="6" stroke-miterlimit="8" fill="none" fill-rule="evenodd"/><path d="M4436 3916.5 4436 4175.9" stroke="#125675" stroke-width="6" stroke-miterlimit="8" fill="none" fill-rule="evenodd"/><path d="M3376.5 3221.5 3376.5 3434.92 4436.22 3434.92 4436.22 3526.3" stroke="#125675" stroke-width="6" stroke-miterlimit="8" fill="none" fill-rule="evenodd"/><path d="M3376.5 3221.5 3376.5 3434.92 3473.94 3434.92 3473.94 3526.3" stroke="#125675" stroke-width="6" stroke-miterlimit="8" fill="none" fill-rule="evenodd"/><path d="M3376.34 3221.5 3376.34 3434.92 2511.5 3434.92 2511.5 3526.3" stroke="#125675" stroke-width="6" stroke-miterlimit="8" fill="none" fill-rule="evenodd"/><path d="M1237.5 4566.5 1237.5 6320.21 1354.43 6320.21" stroke="#125675" stroke-width="6" stroke-miterlimit="8" fill="none" fill-rule="evenodd"/><path d="M1237.5 4566.5 1237.5 5670.6 1354.43 5670.6" stroke="#125675" stroke-width="6" stroke-miterlimit="8" fill="none" fill-rule="evenodd"/><path d="M1237.5 4566.5 1237.5 5030.81 1354.43 5030.81" stroke="#125675" stroke-width="6" stroke-miterlimit="8" fill="none" fill-rule="evenodd"/><path d="M1550 3916.5 1550 4175.9" stroke="#125675" stroke-width="6" stroke-miterlimit="8" fill="none" fill-rule="evenodd"/><path d="M3376.63 3221.5 3376.63 3434.92 1549.5 3434.92 1549.5 3526.3" stroke="#125675" stroke-width="6" stroke-miterlimit="8" fill="none" fill-rule="evenodd"/><path d="M80 3916.5 80 5670.21 197 5670.21" stroke="#125675" stroke-width="6" stroke-miterlimit="8" fill="none" fill-rule="evenodd"/><path d="M80 3916.5 80 5020.6 197 5020.6" stroke="#125675" stroke-width="6" stroke-miterlimit="8" fill="none" fill-rule="evenodd"/><path d="M80 3916.5 80 4371 197 4371" stroke="#125675" stroke-width="6" stroke-miterlimit="8" fill="none" fill-rule="evenodd"/><path d="M3376.79 3221.5 3376.79 3434.92 392.5 3434.92 392.5 3526.3" stroke="#125675" stroke-width="6" stroke-miterlimit="8" fill="none" fill-rule="evenodd"/><path d="M7912.22 2402.5 7912.22 2655.5 3376.5 2655.5 3376.5 2746.88" stroke="#0E4B66" stroke-width="6" stroke-miterlimit="8" fill="none" fill-rule="evenodd"/><rect x="7477.5" y="1967.5" width="870" height="435" stroke="#FFFFFF" stroke-width="6" stroke-miterlimit="8" fill="#156082"/><text fill="#FFFFFF" font-family="Arial,Arial_MSFontService,sans-serif" font-weight="700" font-size="101" transform="matrix(1 0 0 1 7802.7 2157)">CEO <tspan font-family="Calibri,Calibri_MSFontService,sans-serif" font-size="101" x="-175" y="110">Võ Ngọc Sanh</tspan></text><rect x="2902.5" y="2746.5" width="949" height="475" stroke="#FFFFFF" stroke-width="6" stroke-miterlimit="8" fill="#156082"/><text fill="#FFFFFF" font-family="Calibri,Calibri_MSFontService,sans-serif" font-weight="700" font-size="101" transform="matrix(1 0 0 1 2964.39 2957)">Production Director<tspan font-size="101" x="103" y="110">Nguyễn </tspan><tspan font-size="101" x="445" y="110">Sỹ</tspan><tspan font-size="101" x="562" y="110">Văn</tspan></text><rect x="2" y="3526.5" width="780" height="390" stroke="#FFFFFF" stroke-width="6" stroke-miterlimit="8" fill="#156082"/><text fill="#FFFFFF" font-family="Calibri,Calibri_MSFontService,sans-serif" font-weight="700" font-size="101" transform="matrix(1 0 0 1 144 3639)">Engineering <tspan font-size="101" x="59" y="110">Manager</tspan><tspan font-size="101" x="-123" y="221">Nguyễn Ngọc Sơn</tspan></text><rect x="197.5" y="4175.5" width="780" height="391" stroke="#FFFFFF" stroke-width="6" stroke-miterlimit="8" fill="#156082"/><text fill="#FFFFFF" font-family="Calibri,Calibri_MSFontService,sans-serif" font-weight="700" font-size="101" transform="matrix(1 0 0 1 292 4399)">DFM Engineer</text><rect x="197.5" y="4825.5" width="780" height="390" stroke="#FFFFFF" stroke-width="6" stroke-miterlimit="8" fill="#156082"/><text fill="#FFFFFF" font-family="Calibri,Calibri_MSFontService,sans-serif" font-weight="700" font-size="101" transform="matrix(1 0 0 1 211 5049)">CAM Programmer</text><rect x="197.5" y="5475.5" width="780" height="390" stroke="#FFFFFF" stroke-width="6" stroke-miterlimit="8" fill="#156082"/><text fill="#FFFFFF" font-family="Calibri,Calibri_MSFontService,sans-serif" font-weight="700" font-size="101" transform="matrix(1 0 0 1 233 5698)">Process Engineer</text><rect x="1159.5" y="3526.5" width="780" height="390" stroke="#FFFFFF" stroke-width="6" stroke-miterlimit="8" fill="#156082"/><text fill="#FFFFFF" font-family="Calibri,Calibri_MSFontService,sans-serif" font-weight="700" font-size="101" transform="matrix(1 0 0 1 1322.26 3694)">Milling PM<tspan font-size="101" x="-133" y="110">Nguyễn Văn Nam</tspan></text><rect x="1159.5" y="4175.5" width="780" height="391" stroke="#FFFFFF" stroke-width="6" stroke-miterlimit="8" fill="#156082"/><text fill="#FFFFFF" font-family="Calibri,Calibri_MSFontService,sans-serif" font-weight="700" font-size="101" transform="matrix(1 0 0 1 1217.96 4399)">Shift Supervisor</text><rect x="1354.5" y="4825.5" width="820" height="410" stroke="#FFFFFF" stroke-width="6" stroke-miterlimit="8" fill="#156082"/><text fill="#FFFFFF" font-family="Calibri,Calibri_MSFontService,sans-serif" font-weight="700" font-size="101" transform="matrix(1 0 0 1 1533.62 5003)">Production <tspan font-size="101" x="45" y="110">engineer</tspan></text><rect x="1354.5" y="5475.5" width="780" height="390" stroke="#FFFFFF" stroke-width="6" stroke-miterlimit="8" fill="#156082"/><text fill="#FFFFFF" font-family="Calibri,Calibri_MSFontService,sans-serif" font-weight="700" font-size="101" transform="matrix(1 0 0 1 1525.57 5643)">CNC Setup <tspan font-size="101" x="28" y="110">Operator</tspan></text><rect x="1354.5" y="6124.5" width="780" height="390" stroke="#FFFFFF" stroke-width="6" stroke-miterlimit="8" fill="#156082"/><text fill="#FFFFFF" font-family="Calibri,Calibri_MSFontService,sans-serif" font-weight="700" font-size="101" transform="matrix(1 0 0 1 1456.26 6348)">CNC Operator</text><rect x="2122.5" y="3526.5" width="779" height="390" stroke="#FFFFFF" stroke-width="6" stroke-miterlimit="8" fill="#156082"/><text fill="#FFFFFF" font-family="Calibri,Calibri_MSFontService,sans-serif" font-weight="700" font-size="101" transform="matrix(1 0 0 1 2280.96 3639)">Production <tspan font-size="101" x="68" y="110">Planner</tspan><tspan font-size="101" x="-48" y="221">Võ Thị Quyên</tspan></text><rect x="3084.5" y="3526.5" width="779" height="390" stroke="#FFFFFF" stroke-width="6" stroke-miterlimit="8" fill="#156082"/><text fill="#FFFFFF" font-family="Calibri,Calibri_MSFontService,sans-serif" font-weight="700" font-size="101" transform="matrix(1 0 0 1 3198.05 3639)">Maintenance <tspan font-size="101" x="56" y="110">Technician</tspan><tspan font-size="101" x="-85" y="221">Nguyễn Văn Nam</tspan></text><rect x="4046.5" y="3526.5" width="780" height="390" stroke="#FFFFFF" stroke-width="6" stroke-miterlimit="8" fill="#156082"/><text fill="#FFFFFF" font-family="Calibri,Calibri_MSFontService,sans-serif" font-weight="700" font-size="101" transform="matrix(1 0 0 1 4195.93 3694)">Turning PM<tspan font-size="101" x="-143" y="110">Huỳnh Minh Quan</tspan></text><rect x="4046.5" y="4175.5" width="780" height="391" stroke="#FFFFFF" stroke-width="6" stroke-miterlimit="8" fill="#156082"/><text fill="#FFFFFF" font-family="Calibri,Calibri_MSFontService,sans-serif" font-weight="700" font-size="101" transform="matrix(1 0 0 1 4104.81 4399)">Shift Supervisor</text><rect x="4241.5" y="4825.5" width="780" height="390" stroke="#FFFFFF" stroke-width="6" stroke-miterlimit="8" fill="#156082"/><text fill="#FFFFFF" font-family="Calibri,Calibri_MSFontService,sans-serif" font-weight="700" font-size="101" transform="matrix(1 0 0 1 4400.4 4993)">Production <tspan font-size="101" x="45" y="110">engineer</tspan></text><rect x="4241.5" y="5475.5" width="780" height="390" stroke="#FFFFFF" stroke-width="6" stroke-miterlimit="8" fill="#156082"/><text fill="#FFFFFF" font-family="Calibri,Calibri_MSFontService,sans-serif" font-weight="700" font-size="101" transform="matrix(1 0 0 1 4412.42 5643)">CNC Setup <tspan font-size="101" x="28" y="110">Operator</tspan></text><rect x="4241.5" y="6124.5" width="780" height="390" stroke="#FFFFFF" stroke-width="6" stroke-miterlimit="8" fill="#156082"/><text fill="#FFFFFF" font-family="Calibri,Calibri_MSFontService,sans-serif" font-weight="700" font-size="101" transform="matrix(1 0 0 1 4343.11 6348)">CNC Operator</text><rect x="5008.5" y="3526.5" width="780" height="390" stroke="#FFFFFF" stroke-width="6" stroke-miterlimit="8" fill="#156082"/><text fill="#FFFFFF" font-family="Arial,Arial_MSFontService,sans-serif" font-weight="700" font-size="101" transform="matrix(1 0 0 1 5101.29 3749)">Deburr Lead</text><rect x="5203.5" y="4175.5" width="780" height="391" stroke="#FFFFFF" stroke-width="6" stroke-miterlimit="8" fill="#156082"/><text fill="#FFFFFF" font-family="Arial,Arial_MSFontService,sans-serif" font-weight="700" font-size="101" transform="matrix(1 0 0 1 5427.85 4346)">Deburr <tspan font-size="101" x="-94" y="105">Technician</tspan></text><rect x="5971.5" y="3526.5" width="779" height="390" stroke="#FFFFFF" stroke-width="6" stroke-miterlimit="8" fill="#156082"/><text fill="#FFFFFF" font-family="Arial,Arial_MSFontService,sans-serif" font-weight="700" font-size="101" transform="matrix(1 0 0 1 5976.67 3749)">Packaging Lead</text><rect x="6166.5" y="4175.5" width="779" height="391" stroke="#FFFFFF" stroke-width="6" stroke-miterlimit="8" fill="#156082"/><text fill="#FFFFFF" font-family="Arial,Arial_MSFontService,sans-serif" font-weight="700" font-size="101" transform="matrix(1 0 0 1 6303.23 4346)">Packaging <tspan font-size="101" x="-7" y="105">Technician</tspan></text><rect x="4034.5" y="2746.5" width="949" height="475" stroke="#FFFFFF" stroke-width="6" stroke-miterlimit="8" fill="#156082"/><text fill="#FFFFFF" font-family="Calibri,Calibri_MSFontService,sans-serif" font-weight="700" font-size="101" transform="matrix(1 0 0 1 4249.31 2957)">HR Manager<tspan font-size="101" x="15" y="110">Bùi Thị Bích</tspan></text><rect x="5166.5" y="2746.5" width="949" height="475" stroke="#FFFFFF" stroke-width="6" stroke-miterlimit="8" fill="#156082"/><text fill="#FFFFFF" font-family="Arial,Arial_MSFontService,sans-serif" font-weight="700" font-size="101" transform="matrix(1 0 0 1 5287.64 2957)">EHS Specialist<tspan font-family="Calibri,Calibri_MSFontService,sans-serif" font-size="101" x="109" y="110">Bùi Thị Bích</tspan></text><rect x="6298.5" y="2746.5" width="950" height="475" stroke="#FFFFFF" stroke-width="6" stroke-miterlimit="8" fill="#156082"/><text fill="#FFFFFF" font-family="Calibri,Calibri_MSFontService,sans-serif" font-weight="700" font-size="101" transform="matrix(1 0 0 1 6425.04 2957)">IT/ Epicor Admin<tspan font-size="101" x="43" y="110">Lê Ngọc Như </tspan><tspan font-size="101" x="600" y="110">Ý</tspan></text><rect x="7430.5" y="2746.5" width="957" height="478" stroke="#FFFFFF" stroke-width="6" stroke-miterlimit="8" fill="#156082"/><text fill="#FFFFFF" font-family="Calibri,Calibri_MSFontService,sans-serif" font-weight="700" font-size="101" transform="matrix(1 0 0 1 7644.45 2958)">QA Manager<tspan font-size="101" x="2" y="110">Võ Quốc Đạt</tspan></text><rect x="7669.5" y="3526.5" width="780" height="390" stroke="#FFFFFF" stroke-width="6" stroke-miterlimit="8" fill="#156082"/><text fill="#FFFFFF" font-family="Arial,Arial_MSFontService,sans-serif" font-weight="700" font-size="101" transform="matrix(1 0 0 1 7888.36 3696)">Quality <tspan font-size="101" x="-44" y="105">Engineer</tspan></text><rect x="7669.5" y="4175.5" width="780" height="391" stroke="#FFFFFF" stroke-width="6" stroke-miterlimit="8" fill="#156082"/><text fill="#FFFFFF" font-family="Arial,Arial_MSFontService,sans-serif" font-weight="700" font-size="101" transform="matrix(1 0 0 1 7714.68 4399)">QMS Engineer</text><rect x="7669.5" y="4825.5" width="780" height="390" stroke="#FFFFFF" stroke-width="6" stroke-miterlimit="8" fill="#156082"/><text fill="#FFFFFF" font-family="Arial,Arial_MSFontService,sans-serif" font-weight="700" font-size="101" transform="matrix(1 0 0 1 7685.8 5049)">Internal Auditor </text><rect x="7669.5" y="5475.5" width="780" height="390" stroke="#FFFFFF" stroke-width="6" stroke-miterlimit="8" fill="#156082"/><text fill="#FFFFFF" font-family="Arial,Arial_MSFontService,sans-serif" font-weight="700" font-size="101" transform="matrix(1 0 0 1 7742.69 5645)">QC Inspector <tspan font-size="101" x="198" y="105">Lead </tspan></text><rect x="8788.5" y="5475.5" width="779" height="390" stroke="#FFFFFF" stroke-width="6" stroke-miterlimit="8" fill="#156082"/><text fill="#FFFFFF" font-family="Arial,Arial_MSFontService,sans-serif" font-weight="700" font-size="101" transform="matrix(1 0 0 1 8861.04 5698)">QC Inspector </text><rect x="8569.5" y="2746.5" width="957" height="478" stroke="#FFFFFF" stroke-width="6" stroke-miterlimit="8" fill="#156082"/><text fill="#FFFFFF" font-family="Calibri,Calibri_MSFontService,sans-serif" font-weight="700" font-size="101" transform="matrix(1 0 0 1 8762.15 2958)">Sale Manager<tspan font-size="101" x="0" y="110">Võ Ngọc Sanh</tspan></text><rect x="8809.5" y="3526.5" width="779" height="390" stroke="#FFFFFF" stroke-width="6" stroke-miterlimit="8" fill="#156082"/><text fill="#FFFFFF" font-family="Calibri,Calibri_MSFontService,sans-serif" font-weight="700" font-size="101" transform="matrix(1 0 0 1 8834.91 3694)">Customer Service<tspan font-size="101" x="84" y="110">Võ Thị Quyên</tspan></text><rect x="8809.5" y="4175.5" width="779" height="391" stroke="#FFFFFF" stroke-width="6" stroke-miterlimit="8" fill="#156082"/><text fill="#FFFFFF" font-family="Calibri,Calibri_MSFontService,sans-serif" font-weight="700" font-size="101" transform="matrix(1 0 0 1 8996.86 4344)">Estimator<tspan font-size="101" x="-119" y="110">Phan Hồng Sơn</tspan></text><rect x="9709.5" y="2746.5" width="949" height="475" stroke="#FFFFFF" stroke-width="6" stroke-miterlimit="8" fill="#156082"/><text fill="#FFFFFF" font-family="Calibri,Calibri_MSFontService,sans-serif" font-weight="700" font-size="101" transform="matrix(1 0 0 1 9823.27 2957)">Finance Manager<tspan font-size="101" x="66" y="110">Trần</tspan><tspan font-size="101" x="271" y="110">Ngọc Yến</tspan></text><rect x="9946.5" y="3526.5" width="779" height="390" stroke="#FFFFFF" stroke-width="6" stroke-miterlimit="8" fill="#156082"/><text fill="#FFFFFF" font-family="Arial,Arial_MSFontService,sans-serif" font-weight="700" font-size="101" transform="matrix(1 0 0 1 10034 3696)">GL &amp; Payroll <tspan font-size="101" x="24" y="105">Accountant</tspan></text><rect x="9921.5" y="4175.5" width="780" height="391" stroke="#FFFFFF" stroke-width="6" stroke-miterlimit="8" fill="#156082"/><text fill="#FFFFFF" font-family="Arial,Arial_MSFontService,sans-serif" font-weight="700" font-size="101" transform="matrix(1 0 0 1 10103.9 4294)">AP/AR &amp; <tspan font-size="101" x="-30" y="104">Payments </tspan><tspan font-size="101" x="-70" y="209">Accountant</tspan></text><rect x="10841.5" y="2746.5" width="949" height="475" stroke="#FFFFFF" stroke-width="6" stroke-miterlimit="8" fill="#156082"/><text fill="#FFFFFF" font-family="Calibri,Calibri_MSFontService,sans-serif" font-weight="700" font-size="101" transform="matrix(1 0 0 1 11044.7 2935)">Supply Chain<tspan font-size="101" x="83" y="154">Manager</tspan></text><rect x="11078.5" y="3526.5" width="780" height="390" stroke="#FFFFFF" stroke-width="6" stroke-miterlimit="8" fill="#156082"/><text fill="#FFFFFF" font-family="Arial,Arial_MSFontService,sans-serif" font-weight="700" font-size="101" transform="matrix(1 0 0 1 11325 3639)">Buyer<tspan font-family="Calibri,Calibri_MSFontService,sans-serif" font-size="101" x="-184" y="110">Huỳnh Thị </tspan><tspan font-family="Calibri,Calibri_MSFontService,sans-serif" font-size="101" x="264" y="110">Thúy</tspan><tspan font-family="Calibri,Calibri_MSFontService,sans-serif" font-size="101" x="32" y="221">Diễm</tspan></text><rect x="11078.5" y="4175.5" width="780" height="391" stroke="#FFFFFF" stroke-width="6" stroke-miterlimit="8" fill="#156082"/><text fill="#FFFFFF" font-family="Arial,Arial_MSFontService,sans-serif" font-weight="700" font-size="101" transform="matrix(1 0 0 1 11198 4290)">Warehouse <tspan font-size="101" x="143" y="105">Clerk </tspan><tspan font-family="Calibri,Calibri_MSFontService,sans-serif" font-size="101" x="30" y="216">Bùi Thị Huệ</tspan></text><rect x="11078.5" y="4825.5" width="780" height="390" stroke="#FFFFFF" stroke-width="6" stroke-miterlimit="8" fill="#156082"/><text fill="#FFFFFF" font-family="Arial,Arial_MSFontService,sans-serif" font-weight="700" font-size="101" transform="matrix(1 0 0 1 11218.5 4943)">Logistics / <tspan font-size="101" x="33" y="104">Shipping </tspan><tspan font-size="101" x="-39" y="209">Coordinator</tspan></text><rect x="11078.5" y="5475.5" width="780" height="390" stroke="#FFFFFF" stroke-width="6" stroke-miterlimit="8" fill="#156082"/><text fill="#FFFFFF" font-family="Arial,Arial_MSFontService,sans-serif" font-weight="700" font-size="101" transform="matrix(1 0 0 1 11105.7 5645)">Tool Crib / Tool <tspan font-size="101" x="70" y="105">Storekeeper </tspan></text><rect x="11973.5" y="2746.5" width="949" height="475" stroke="#FFFFFF" stroke-width="6" stroke-miterlimit="8" fill="#156082"/><text fill="#FFFFFF" font-family="Calibri,Calibri_MSFontService,sans-serif" font-weight="700" font-size="101" transform="matrix(1 0 0 1 12102 2846)">Engineering Lead<tspan font-size="101" x="27" y="110">Nguyễn </tspan><tspan font-size="101" x="369" y="110">Hướng</tspan><tspan font-size="101" x="198" y="221">Dương</tspan><tspan font-size="101" x="104.82" y="332">Bùi Gia </tspan><tspan font-size="101" x="424" y="332">Phú</tspan></text><rect x="12210.5" y="3526.5" width="780" height="392" stroke="#FFFFFF" stroke-width="6" stroke-miterlimit="8" fill="#156082"/><text fill="#FFFFFF" font-family="Calibri,Calibri_MSFontService,sans-serif" font-weight="700" font-size="101" transform="matrix(1 0 0 1 12233.9 3750)">Cam Programmer</text></g></svg>