<svg width="1068" height="1609" xmlns="http://www.w3.org/2000/svg" xmlns:xlink="http://www.w3.org/1999/xlink" xml:space="preserve" overflow="hidden"><g transform="translate(-852 -238)"><g><path d="M1592.5 526.5 1592.5 759.972 1698.83 759.972" stroke="#9BBB59" stroke-width="3.4375" stroke-linecap="butt" stroke-linejoin="round" stroke-miterlimit="10" stroke-opacity="1" fill="none" fill-rule="evenodd"/><path d="M1592.5 526.5 1592.5 595.848 1698.83 595.848" stroke="#9BBB59" stroke-width="3.4375" stroke-linecap="butt" stroke-linejoin="round" stroke-miterlimit="10" stroke-opacity="1" fill="none" fill-rule="evenodd"/><path d="M1313.5 362.5 1313.5 386.772 1593.2 386.772 1593.2 411.044" stroke="#C0504D" stroke-width="3.4375" stroke-linecap="butt" stroke-linejoin="round" stroke-miterlimit="10" stroke-opacity="1" fill="none" fill-rule="evenodd"/><path d="M1313.5 526.5 1313.5 1744.72 1419.83 1744.72" stroke="#9BBB59" stroke-width="3.4375" stroke-linecap="butt" stroke-linejoin="round" stroke-miterlimit="10" stroke-opacity="1" fill="none" fill-rule="evenodd"/><path d="M1313.5 526.5 1313.5 1580.59 1419.83 1580.59" stroke="#9BBB59" stroke-width="3.4375" stroke-linecap="butt" stroke-linejoin="round" stroke-miterlimit="10" stroke-opacity="1" fill="none" fill-rule="evenodd"/><path d="M1313.5 526.5 1313.5 1416.47 1419.83 1416.47" stroke="#9BBB59" stroke-width="3.4375" stroke-linecap="butt" stroke-linejoin="round" stroke-miterlimit="10" stroke-opacity="1" fill="none" fill-rule="evenodd"/><path d="M1313.5 526.5 1313.5 1252.34 1419.83 1252.34" stroke="#9BBB59" stroke-width="3.4375" stroke-linecap="butt" stroke-linejoin="round" stroke-miterlimit="10" stroke-opacity="1" fill="none" fill-rule="evenodd"/><path d="M1313.5 526.5 1313.5 1088.22 1419.83 1088.22" stroke="#9BBB59" stroke-width="3.4375" stroke-linecap="butt" stroke-linejoin="round" stroke-miterlimit="10" stroke-opacity="1" fill="none" fill-rule="evenodd"/><path d="M1313.5 526.5 1313.5 924.096 1419.83 924.096" stroke="#9BBB59" stroke-width="3.4375" stroke-linecap="butt" stroke-linejoin="round" stroke-miterlimit="10" stroke-opacity="1" fill="none" fill-rule="evenodd"/><path d="M1313.5 526.5 1313.5 759.972 1419.83 759.972" stroke="#9BBB59" stroke-width="3.4375" stroke-linecap="butt" stroke-linejoin="round" stroke-miterlimit="10" stroke-opacity="1" fill="none" fill-rule="evenodd"/><path d="M1313.5 526.5 1313.5 595.848 1419.83 595.848" stroke="#9BBB59" stroke-width="3.4375" stroke-linecap="butt" stroke-linejoin="round" stroke-miterlimit="10" stroke-opacity="1" fill="none" fill-rule="evenodd"/><path d="M1313 362.5 1313 411.044" stroke="#C0504D" stroke-width="3.4375" stroke-linecap="butt" stroke-linejoin="round" stroke-miterlimit="10" stroke-opacity="1" fill="none" fill-rule="evenodd"/><path d="M1033.5 526.5 1033.5 1416.47 1139.83 1416.47" stroke="#9BBB59" stroke-width="3.4375" stroke-linecap="butt" stroke-linejoin="round" stroke-miterlimit="10" stroke-opacity="1" fill="none" fill-rule="evenodd"/><path d="M1033.5 526.5 1033.5 1252.34 1139.83 1252.34" stroke="#9BBB59" stroke-width="3.4375" stroke-linecap="butt" stroke-linejoin="round" stroke-miterlimit="10" stroke-opacity="1" fill="none" fill-rule="evenodd"/><path d="M1033.5 526.5 1033.5 1088.22 1139.83 1088.22" stroke="#9BBB59" stroke-width="3.4375" stroke-linecap="butt" stroke-linejoin="round" stroke-miterlimit="10" stroke-opacity="1" fill="none" fill-rule="evenodd"/><path d="M1033.5 526.5 1033.5 924.096 1139.83 924.096" stroke="#9BBB59" stroke-width="3.4375" stroke-linecap="butt" stroke-linejoin="round" stroke-miterlimit="10" stroke-opacity="1" fill="none" fill-rule="evenodd"/><path d="M1033.5 526.5 1033.5 759.972 1139.83 759.972" stroke="#9BBB59" stroke-width="3.4375" stroke-linecap="butt" stroke-linejoin="round" stroke-miterlimit="10" stroke-opacity="1" fill="none" fill-rule="evenodd"/><path d="M1033.5 526.5 1033.5 595.848 1139.83 595.848" stroke="#9BBB59" stroke-width="3.4375" stroke-linecap="butt" stroke-linejoin="round" stroke-miterlimit="10" stroke-opacity="1" fill="none" fill-rule="evenodd"/><path d="M1313.2 362.5 1313.2 386.772 1033.5 386.772 1033.5 411.044" stroke="#C0504D" stroke-width="3.4375" stroke-linecap="butt" stroke-linejoin="round" stroke-miterlimit="10" stroke-opacity="1" fill="none" fill-rule="evenodd"/><path d="M1268.8 267.408C1289.1 242.782 1325.36 239.426 1349.77 259.911 1352.47 262.176 1354.96 264.685 1357.2 267.408" stroke="#4F81BD" stroke-width="3.4375" stroke-linecap="butt" stroke-linejoin="round" stroke-miterlimit="10" stroke-opacity="1" fill="none" fill-rule="evenodd"/><path d="M1357.2 341.592C1336.9 366.218 1300.64 369.575 1276.23 349.089 1273.53 346.824 1271.04 344.315 1268.8 341.592" stroke="#4F81BD" stroke-width="3.4375" stroke-linecap="butt" stroke-linejoin="round" stroke-miterlimit="10" stroke-opacity="1" fill="none" fill-rule="evenodd"/><text fill="#000000" fill-opacity="1" font-family="Calibri,Calibri_MSFontService,sans-serif" font-style="normal" font-variant="normal" font-weight="400" font-stretch="normal" font-size="32" text-anchor="start" direction="ltr" writing-mode="lr-tb" unicode-bidi="normal" text-decoration="none" transform="matrix(1 0 0 1 1198.84 313)">General Manager</text><path d="M989.069 431.218C1009.66 406.68 1046.24 403.479 1070.78 424.069 1073.37 426.24 1075.76 428.632 1077.93 431.218" stroke="#4F81BD" stroke-width="3.4375" stroke-linecap="butt" stroke-linejoin="round" stroke-miterlimit="10" stroke-opacity="1" fill="none" fill-rule="evenodd"/><path d="M1077.93 505.782C1057.34 530.32 1020.76 533.521 996.218 512.931 993.632 510.76 991.24 508.368 989.069 505.782" stroke="#4F81BD" stroke-width="3.4375" stroke-linecap="butt" stroke-linejoin="round" stroke-miterlimit="10" stroke-opacity="1" fill="none" fill-rule="evenodd"/><text fill="#000000" fill-opacity="1" font-family="Calibri,Calibri_MSFontService,sans-serif" font-style="normal" font-variant="normal" font-weight="400" font-stretch="normal" font-size="32" text-anchor="start" direction="ltr" writing-mode="lr-tb" unicode-bidi="normal" text-decoration="none" transform="matrix(1 0 0 1 921.361 477)">CNC MACHINING</text><path d="M1139.07 595.218C1159.66 570.68 1196.24 567.479 1220.78 588.069 1223.37 590.24 1225.76 592.632 1227.93 595.218" stroke="#4F81BD" stroke-width="3.4375" stroke-linecap="butt" stroke-linejoin="round" stroke-miterlimit="10" stroke-opacity="1" fill="none" fill-rule="evenodd"/><path d="M1227.93 669.782C1207.34 694.32 1170.76 697.521 1146.22 676.931 1143.63 674.76 1141.24 672.368 1139.07 669.782" stroke="#4F81BD" stroke-width="3.4375" stroke-linecap="butt" stroke-linejoin="round" stroke-miterlimit="10" stroke-opacity="1" fill="none" fill-rule="evenodd"/><text fill="#000000" fill-opacity="1" font-family="Calibri,Calibri_MSFontService,sans-serif" font-style="normal" font-variant="normal" font-weight="400" font-stretch="normal" font-size="32" text-anchor="start" direction="ltr" writing-mode="lr-tb" unicode-bidi="normal" text-decoration="none" transform="matrix(1 0 0 1 1133.07 642)">Planner</text><path d="M1139.23 759.852C1159.92 735.612 1196.52 732.594 1220.97 753.11 1223.42 755.167 1225.7 757.422 1227.77 759.852" stroke="#4F81BD" stroke-width="3.4375" stroke-linecap="butt" stroke-linejoin="round" stroke-miterlimit="10" stroke-opacity="1" fill="none" fill-rule="evenodd"/><path d="M1227.77 834.148C1207.08 858.387 1170.48 861.406 1146.03 840.89 1143.58 838.833 1141.3 836.578 1139.23 834.148" stroke="#4F81BD" stroke-width="3.4375" stroke-linecap="butt" stroke-linejoin="round" stroke-miterlimit="10" stroke-opacity="1" fill="none" fill-rule="evenodd"/><text fill="#000000" fill-opacity="1" font-family="Calibri,Calibri_MSFontService,sans-serif" font-style="normal" font-variant="normal" font-weight="400" font-stretch="normal" font-size="32" text-anchor="start" direction="ltr" writing-mode="lr-tb" unicode-bidi="normal" text-decoration="none" transform="matrix(1 0 0 1 1106 806)">Engineering</text><path d="M1139.23 923.852C1159.92 899.612 1196.52 896.594 1220.97 917.11 1223.42 919.167 1225.7 921.422 1227.77 923.852" stroke="#4F81BD" stroke-width="3.4375" stroke-linecap="butt" stroke-linejoin="round" stroke-miterlimit="10" stroke-opacity="1" fill="none" fill-rule="evenodd"/><path d="M1227.77 998.148C1207.08 1022.39 1170.48 1025.41 1146.03 1004.89 1143.58 1002.83 1141.3 1000.58 1139.23 998.148" stroke="#4F81BD" stroke-width="3.4375" stroke-linecap="butt" stroke-linejoin="round" stroke-miterlimit="10" stroke-opacity="1" fill="none" fill-rule="evenodd"/><text fill="#000000" fill-opacity="1" font-family="Calibri,Calibri_MSFontService,sans-serif" font-style="normal" font-variant="normal" font-weight="400" font-stretch="normal" font-size="32" text-anchor="start" direction="ltr" writing-mode="lr-tb" unicode-bidi="normal" text-decoration="none" transform="matrix(1 0 0 1 1158.41 970)">Mill</text><path d="M1139.23 1087.85C1159.92 1063.61 1196.52 1060.59 1220.97 1081.11 1223.42 1083.17 1225.7 1085.42 1227.77 1087.85" stroke="#4F81BD" stroke-width="3.4375" stroke-linecap="butt" stroke-linejoin="round" stroke-miterlimit="10" stroke-opacity="1" fill="none" fill-rule="evenodd"/><path d="M1227.77 1162.15C1207.08 1186.39 1170.48 1189.41 1146.03 1168.89 1143.58 1166.83 1141.3 1164.58 1139.23 1162.15" stroke="#4F81BD" stroke-width="3.4375" stroke-linecap="butt" stroke-linejoin="round" stroke-miterlimit="10" stroke-opacity="1" fill="none" fill-rule="evenodd"/><text fill="#000000" fill-opacity="1" font-family="Calibri,Calibri_MSFontService,sans-serif" font-style="normal" font-variant="normal" font-weight="400" font-stretch="normal" font-size="32" text-anchor="start" direction="ltr" writing-mode="lr-tb" unicode-bidi="normal" text-decoration="none" transform="matrix(1 0 0 1 1133.23 1134)">Turning</text><path d="M1139.23 1251.85C1159.92 1227.61 1196.52 1224.59 1220.97 1245.11 1223.42 1247.17 1225.7 1249.42 1227.77 1251.85" stroke="#4F81BD" stroke-width="3.4375" stroke-linecap="butt" stroke-linejoin="round" stroke-miterlimit="10" stroke-opacity="1" fill="none" fill-rule="evenodd"/><path d="M1227.77 1326.15C1207.08 1350.39 1170.48 1353.41 1146.03 1332.89 1143.58 1330.83 1141.3 1328.58 1139.23 1326.15" stroke="#4F81BD" stroke-width="3.4375" stroke-linecap="butt" stroke-linejoin="round" stroke-miterlimit="10" stroke-opacity="1" fill="none" fill-rule="evenodd"/><text fill="#000000" fill-opacity="1" font-family="Calibri,Calibri_MSFontService,sans-serif" font-style="normal" font-variant="normal" font-weight="400" font-stretch="normal" font-size="32" text-anchor="start" direction="ltr" writing-mode="lr-tb" unicode-bidi="normal" text-decoration="none" transform="matrix(1 0 0 1 1137.26 1298)">Deburr</text><path d="M1139.07 1416.22C1159.66 1391.68 1196.24 1388.48 1220.78 1409.07 1223.37 1411.24 1225.76 1413.63 1227.93 1416.22" stroke="#4F81BD" stroke-width="3.4375" stroke-linecap="butt" stroke-linejoin="round" stroke-miterlimit="10" stroke-opacity="1" fill="none" fill-rule="evenodd"/><path d="M1227.93 1490.78C1207.34 1515.32 1170.76 1518.52 1146.22 1497.93 1143.63 1495.76 1141.24 1493.37 1139.07 1490.78" stroke="#4F81BD" stroke-width="3.4375" stroke-linecap="butt" stroke-linejoin="round" stroke-miterlimit="10" stroke-opacity="1" fill="none" fill-rule="evenodd"/><text fill="#000000" fill-opacity="1" font-family="Calibri,Calibri_MSFontService,sans-serif" font-style="normal" font-variant="normal" font-weight="400" font-stretch="normal" font-size="32" text-anchor="start" direction="ltr" writing-mode="lr-tb" unicode-bidi="normal" text-decoration="none" transform="matrix(1 0 0 1 1163.82 1462)">QC</text><path d="M1268.8 431.408C1289.1 406.782 1325.36 403.426 1349.77 423.911 1352.47 426.176 1354.96 428.685 1357.2 431.408" stroke="#4F81BD" stroke-width="3.4375" stroke-linecap="butt" stroke-linejoin="round" stroke-miterlimit="10" stroke-opacity="1" fill="none" fill-rule="evenodd"/><path d="M1357.2 505.592C1336.9 530.218 1300.64 533.575 1276.23 513.089 1273.53 510.824 1271.04 508.315 1268.8 505.592" stroke="#4F81BD" stroke-width="3.4375" stroke-linecap="butt" stroke-linejoin="round" stroke-miterlimit="10" stroke-opacity="1" fill="none" fill-rule="evenodd"/><text fill="#000000" fill-opacity="1" font-family="Calibri,Calibri_MSFontService,sans-serif" font-style="normal" font-variant="normal" font-weight="400" font-stretch="normal" font-size="32" text-anchor="start" direction="ltr" writing-mode="lr-tb" unicode-bidi="normal" text-decoration="none" transform="matrix(1 0 0 1 1251.24 477)">SUPPORT </text><path d="M1419.07 595.218C1439.66 570.68 1476.24 567.479 1500.78 588.069 1503.37 590.24 1505.76 592.632 1507.93 595.218" stroke="#4F81BD" stroke-width="3.4375" stroke-linecap="butt" stroke-linejoin="round" stroke-miterlimit="10" stroke-opacity="1" fill="none" fill-rule="evenodd"/><path d="M1507.93 669.782C1487.34 694.32 1450.76 697.521 1426.22 676.931 1423.63 674.76 1421.24 672.368 1419.07 669.782" stroke="#4F81BD" stroke-width="3.4375" stroke-linecap="butt" stroke-linejoin="round" stroke-miterlimit="10" stroke-opacity="1" fill="none" fill-rule="evenodd"/><text fill="#000000" fill-opacity="1" font-family="Calibri,Calibri_MSFontService,sans-serif" font-style="normal" font-variant="normal" font-weight="400" font-stretch="normal" font-size="32" text-anchor="start" direction="ltr" writing-mode="lr-tb" unicode-bidi="normal" text-decoration="none" transform="matrix(1 0 0 1 1442.79 642)">QA</text><path d="M1419.23 759.852C1439.92 735.612 1476.52 732.594 1500.97 753.11 1503.42 755.167 1505.7 757.422 1507.77 759.852" stroke="#4F81BD" stroke-width="3.4375" stroke-linecap="butt" stroke-linejoin="round" stroke-miterlimit="10" stroke-opacity="1" fill="none" fill-rule="evenodd"/><path d="M1507.77 834.148C1487.08 858.387 1450.48 861.405 1426.03 840.889 1423.58 838.833 1421.3 836.578 1419.23 834.148" stroke="#4F81BD" stroke-width="3.4375" stroke-linecap="butt" stroke-linejoin="round" stroke-miterlimit="10" stroke-opacity="1" fill="none" fill-rule="evenodd"/><text fill="#000000" fill-opacity="1" font-family="Calibri,Calibri_MSFontService,sans-serif" font-style="normal" font-variant="normal" font-weight="400" font-stretch="normal" font-size="32" text-anchor="start" direction="ltr" writing-mode="lr-tb" unicode-bidi="normal" text-decoration="none" transform="matrix(1 0 0 1 1444.17 806)">HR</text><path d="M1419.23 923.852C1439.92 899.612 1476.52 896.594 1500.97 917.11 1503.42 919.167 1505.7 921.422 1507.77 923.852" stroke="#4F81BD" stroke-width="3.4375" stroke-linecap="butt" stroke-linejoin="round" stroke-miterlimit="10" stroke-opacity="1" fill="none" fill-rule="evenodd"/><path d="M1507.77 998.148C1487.08 1022.39 1450.48 1025.41 1426.03 1004.89 1423.58 1002.83 1421.3 1000.58 1419.23 998.148" stroke="#4F81BD" stroke-width="3.4375" stroke-linecap="butt" stroke-linejoin="round" stroke-miterlimit="10" stroke-opacity="1" fill="none" fill-rule="evenodd"/><text fill="#000000" fill-opacity="1" font-family="Calibri,Calibri_MSFontService,sans-serif" font-style="normal" font-variant="normal" font-weight="400" font-stretch="normal" font-size="32" text-anchor="start" direction="ltr" writing-mode="lr-tb" unicode-bidi="normal" text-decoration="none" transform="matrix(1 0 0 1 1436.44 952)">IT &amp; </text><text fill="#000000" fill-opacity="1" font-family="Calibri,Calibri_MSFontService,sans-serif" font-style="normal" font-variant="normal" font-weight="400" font-stretch="normal" font-size="32" text-anchor="start" direction="ltr" writing-mode="lr-tb" unicode-bidi="normal" text-decoration="none" transform="matrix(1 0 0 1 1377.41 987)">Epicor admin</text><path d="M1419.23 1087.85C1439.92 1063.61 1476.52 1060.59 1500.97 1081.11 1503.42 1083.17 1505.7 1085.42 1507.77 1087.85" stroke="#4F81BD" stroke-width="3.4375" stroke-linecap="butt" stroke-linejoin="round" stroke-miterlimit="10" stroke-opacity="1" fill="none" fill-rule="evenodd"/><path d="M1507.77 1162.15C1487.08 1186.39 1450.48 1189.41 1426.03 1168.89 1423.58 1166.83 1421.3 1164.58 1419.23 1162.15" stroke="#4F81BD" stroke-width="3.4375" stroke-linecap="butt" stroke-linejoin="round" stroke-miterlimit="10" stroke-opacity="1" fill="none" fill-rule="evenodd"/><text fill="#000000" fill-opacity="1" font-family="Calibri,Calibri_MSFontService,sans-serif" font-style="normal" font-variant="normal" font-weight="400" font-stretch="normal" font-size="32" text-anchor="start" direction="ltr" writing-mode="lr-tb" unicode-bidi="normal" text-decoration="none" transform="matrix(1 0 0 1 1421.56 1116)">Sale &amp; </text><text fill="#000000" fill-opacity="1" font-family="Calibri,Calibri_MSFontService,sans-serif" font-style="normal" font-variant="normal" font-weight="400" font-stretch="normal" font-size="32" text-anchor="start" direction="ltr" writing-mode="lr-tb" unicode-bidi="normal" text-decoration="none" transform="matrix(1 0 0 1 1410.15 1151)">Quoting</text><path d="M1419.23 1251.85C1439.92 1227.61 1476.52 1224.59 1500.97 1245.11 1503.42 1247.17 1505.7 1249.42 1507.77 1251.85" stroke="#4F81BD" stroke-width="3.4375" stroke-linecap="butt" stroke-linejoin="round" stroke-miterlimit="10" stroke-opacity="1" fill="none" fill-rule="evenodd"/><path d="M1507.77 1326.15C1487.08 1350.39 1450.48 1353.41 1426.03 1332.89 1423.58 1330.83 1421.3 1328.58 1419.23 1326.15" stroke="#4F81BD" stroke-width="3.4375" stroke-linecap="butt" stroke-linejoin="round" stroke-miterlimit="10" stroke-opacity="1" fill="none" fill-rule="evenodd"/><text fill="#000000" fill-opacity="1" font-family="Calibri,Calibri_MSFontService,sans-serif" font-style="normal" font-variant="normal" font-weight="400" font-stretch="normal" font-size="32" text-anchor="start" direction="ltr" writing-mode="lr-tb" unicode-bidi="normal" text-decoration="none" transform="matrix(1 0 0 1 1408.67 1280)">Strategy </text><text fill="#000000" fill-opacity="1" font-family="Calibri,Calibri_MSFontService,sans-serif" font-style="normal" font-variant="normal" font-weight="400" font-stretch="normal" font-size="32" text-anchor="start" direction="ltr" writing-mode="lr-tb" unicode-bidi="normal" text-decoration="none" transform="matrix(1 0 0 1 1391.71 1315)">Purchasing</text><path d="M1419.07 1416.22C1439.66 1391.68 1476.24 1388.48 1500.78 1409.07 1503.37 1411.24 1505.76 1413.63 1507.93 1416.22" stroke="#4F81BD" stroke-width="3.4375" stroke-linecap="butt" stroke-linejoin="round" stroke-miterlimit="10" stroke-opacity="1" fill="none" fill-rule="evenodd"/><path d="M1507.93 1490.78C1487.34 1515.32 1450.76 1518.52 1426.22 1497.93 1423.63 1495.76 1421.24 1493.37 1419.07 1490.78" stroke="#4F81BD" stroke-width="3.4375" stroke-linecap="butt" stroke-linejoin="round" stroke-miterlimit="10" stroke-opacity="1" fill="none" fill-rule="evenodd"/><text fill="#000000" fill-opacity="1" font-family="Calibri,Calibri_MSFontService,sans-serif" font-style="normal" font-variant="normal" font-weight="400" font-stretch="normal" font-size="32" text-anchor="start" direction="ltr" writing-mode="lr-tb" unicode-bidi="normal" text-decoration="none" transform="matrix(1 0 0 1 1373.16 1445)">Warehouse &amp; </text><text fill="#000000" fill-opacity="1" font-family="Calibri,Calibri_MSFontService,sans-serif" font-style="normal" font-variant="normal" font-weight="400" font-stretch="normal" font-size="32" text-anchor="start" direction="ltr" writing-mode="lr-tb" unicode-bidi="normal" text-decoration="none" transform="matrix(1 0 0 1 1414.32 1480)">Logistic</text><path d="M1419.07 1580.22C1439.66 1555.68 1476.24 1552.48 1500.78 1573.07 1503.37 1575.24 1505.76 1577.63 1507.93 1580.22" stroke="#4F81BD" stroke-width="3.4375" stroke-linecap="butt" stroke-linejoin="round" stroke-miterlimit="10" stroke-opacity="1" fill="none" fill-rule="evenodd"/><path d="M1507.93 1654.78C1487.34 1679.32 1450.76 1682.52 1426.22 1661.93 1423.63 1659.76 1421.24 1657.37 1419.07 1654.78" stroke="#4F81BD" stroke-width="3.4375" stroke-linecap="butt" stroke-linejoin="round" stroke-miterlimit="10" stroke-opacity="1" fill="none" fill-rule="evenodd"/><text fill="#000000" fill-opacity="1" font-family="Calibri,Calibri_MSFontService,sans-serif" font-style="normal" font-variant="normal" font-weight="400" font-stretch="normal" font-size="32" text-anchor="start" direction="ltr" writing-mode="lr-tb" unicode-bidi="normal" text-decoration="none" transform="matrix(1 0 0 1 1376.67 1626)">Maintenance</text><path d="M1419.07 1744.22C1439.66 1719.68 1476.24 1716.48 1500.78 1737.07 1503.37 1739.24 1505.76 1741.63 1507.93 1744.22" stroke="#4F81BD" stroke-width="3.4375" stroke-linecap="butt" stroke-linejoin="round" stroke-miterlimit="10" stroke-opacity="1" fill="none" fill-rule="evenodd"/><path d="M1507.93 1818.78C1487.34 1843.32 1450.76 1846.52 1426.22 1825.93 1423.63 1823.76 1421.24 1821.37 1419.07 1818.78" stroke="#4F81BD" stroke-width="3.4375" stroke-linecap="butt" stroke-linejoin="round" stroke-miterlimit="10" stroke-opacity="1" fill="none" fill-rule="evenodd"/><text fill="#000000" fill-opacity="1" font-family="Calibri,Calibri_MSFontService,sans-serif" font-style="normal" font-variant="normal" font-weight="400" font-stretch="normal" font-size="32" text-anchor="start" direction="ltr" writing-mode="lr-tb" unicode-bidi="normal" text-decoration="none" transform="matrix(1 0 0 1 1412.5 1790)">Finance</text><path d="M1548.8 431.408C1569.1 406.782 1605.36 403.426 1629.77 423.911 1632.47 426.176 1634.96 428.685 1637.2 431.408" stroke="#4F81BD" stroke-width="3.4375" stroke-linecap="butt" stroke-linejoin="round" stroke-miterlimit="10" stroke-opacity="1" fill="none" fill-rule="evenodd"/><path d="M1637.2 505.592C1616.9 530.218 1580.64 533.575 1556.23 513.089 1553.53 510.824 1551.04 508.315 1548.8 505.592" stroke="#4F81BD" stroke-width="3.4375" stroke-linecap="butt" stroke-linejoin="round" stroke-miterlimit="10" stroke-opacity="1" fill="none" fill-rule="evenodd"/><text fill="#000000" fill-opacity="1" font-family="Calibri,Calibri_MSFontService,sans-serif" font-style="normal" font-variant="normal" font-weight="400" font-stretch="normal" font-size="32" text-anchor="start" direction="ltr" writing-mode="lr-tb" unicode-bidi="normal" text-decoration="none" transform="matrix(1 0 0 1 1515.16 477)">Engineering</text><path d="M1698.8 595.408C1719.1 570.782 1755.36 567.425 1779.77 587.911 1782.47 590.176 1784.96 592.685 1787.2 595.408" stroke="#4F81BD" stroke-width="3.4375" stroke-linecap="butt" stroke-linejoin="round" stroke-miterlimit="10" stroke-opacity="1" fill="none" fill-rule="evenodd"/><path d="M1787.2 669.592C1766.9 694.218 1730.64 697.574 1706.23 677.089 1703.53 674.824 1701.04 672.315 1698.8 669.592" stroke="#4F81BD" stroke-width="3.4375" stroke-linecap="butt" stroke-linejoin="round" stroke-miterlimit="10" stroke-opacity="1" fill="none" fill-rule="evenodd"/><text fill="#000000" fill-opacity="1" font-family="Calibri,Calibri_MSFontService,sans-serif" font-style="normal" font-variant="normal" font-weight="400" font-stretch="normal" font-size="32" text-anchor="start" direction="ltr" writing-mode="lr-tb" unicode-bidi="normal" text-decoration="none" transform="matrix(1 0 0 1 1686.37 642)">Leader 1</text><path d="M1698.95 760.04C1719.36 735.713 1755.63 732.54 1779.96 752.952 1782.52 755.104 1784.9 757.475 1787.05 760.04" stroke="#4F81BD" stroke-width="3.4375" stroke-linecap="butt" stroke-linejoin="round" stroke-miterlimit="10" stroke-opacity="1" fill="none" fill-rule="evenodd"/><path d="M1787.05 833.96C1766.64 858.287 1730.37 861.46 1706.04 841.048 1703.48 838.896 1701.1 836.524 1698.95 833.96" stroke="#4F81BD" stroke-width="3.4375" stroke-linecap="butt" stroke-linejoin="round" stroke-miterlimit="10" stroke-opacity="1" fill="none" fill-rule="evenodd"/><text fill="#000000" fill-opacity="1" font-family="Calibri,Calibri_MSFontService,sans-serif" font-style="normal" font-variant="normal" font-weight="400" font-stretch="normal" font-size="32" text-anchor="start" direction="ltr" writing-mode="lr-tb" unicode-bidi="normal" text-decoration="none" transform="matrix(1 0 0 1 1686.37 806)">Leader 2</text></g></g></svg>