<?xml version="1.0" encoding="UTF-8"?>
<!DOCTYPE svg PUBLIC "-//W3C//DTD SVG 1.1//EN" "http://www.w3.org/Graphics/SVG/1.1/DTD/svg11.dtd">
<!-- Creator: CorelDRAW 2021 (64-Bit) -->
<svg xmlns="http://www.w3.org/2000/svg" xml:space="preserve" width="52mm" height="14.9902mm" version="1.1" style="shape-rendering:geometricPrecision; text-rendering:geometricPrecision; image-rendering:optimizeQuality; fill-rule:evenodd; clip-rule:evenodd"
viewBox="0 0 5200 1500"
 xmlns:xlink="http://www.w3.org/1999/xlink"
 xmlns:xodm="http://www.corel.com/coreldraw/odm/2003">
 <defs>
  <style type="text/css">
   <![CDATA[
    .str0 {stroke:#2C9CD7;stroke-width:7.62;stroke-miterlimit:2.61313}
    .fil0 {fill:#2C9CD7;fill-rule:nonzero}
   ]]>
  </style>
 </defs>
 <g id="Layer_x0020_1">
  <metadata id="CorelCorpID_0Corel-Layer"/>
  <g id="_2417711561056">
   <path class="fil0" d="M2359.02 1130.51l-178.06 0 0 -302.18 -282.9 0 0 302.18 -177.99 0 0 -750.38 177.99 0 0 296.06 282.9 0 0 -296.06 178.06 0 0 750.38zm-1181.25 -464c-10.97,18.94 -18.05,39.11 -21.77,59.48l-155.29 0c-9.77,-80.22 -55.87,-154.96 -131.18,-198.47 -75.3,-43.5 -163.12,-45.98 -237.42,-14.41l-77.68 -134.52c31.13,-26.26 53.31,-62.67 61.67,-104.13l399.5 0 199.83 346.05c-14.59,12.82 -27.38,28.2 -37.66,46zm-162.09 575.23l-399.58 0c-3.86,-19.06 -10.74,-37.82 -21.07,-55.58 -10.92,-18.95 -24.74,-35.26 -40.6,-48.56l77.68 -134.48c122.15,52.16 266.81,6.06 334.87,-111.9 18.49,-32.02 29.61,-66.38 33.81,-100.93l155.28 0c7.17,40.05 27.57,77.54 59.36,105.43l-199.75 346.02zm-516.98 -136.27c-38.26,-13.86 -80.91,-14.9 -120.96,-1.34l-199.75 -346.01 199.75 -346.02c18.43,6.21 38.16,9.59 58.62,9.59 21.93,0 42.95,-3.83 62.42,-10.89l77.64 134.41c-27.86,20.95 -52.04,47.74 -70.62,79.8 -68.06,117.91 -35.7,266.21 70.62,345.94l-77.72 134.52zm929.38 -506.02c-46.77,-27.01 -100.48,-31.05 -148.07,-15.64l-60.45 -104.61 -161.09 -278.96 -322.08 0 -120.82 0c-17.53,-82.84 -91.12,-145.04 -179.21,-145.04 -101.15,0 -183.22,82.07 -183.22,183.27 0,54.01 23.37,102.53 60.59,136.08l-60.44 104.65 -161.08 278.92 161.08 278.95 60.37 104.59c-62.89,56.61 -80.02,151.46 -35.99,227.72 50.67,87.64 162.67,117.66 250.34,67.06 46.74,-27.01 77.13,-71.48 87.56,-120.48l120.82 0 322.08 0 161.09 -278.89 60.37 -104.64c80.54,26.19 171.15,-6.43 215.21,-82.7 50.56,-87.63 20.54,-199.68 -67.06,-250.28zm1070.92 -219.32l399.38 0 0 148.96 -221.32 0 0 147.1 195.45 0 0 149.45 -195.45 0 0 154.92 226.94 0 0 149.95 -405 0 0 -750.38zm897.03 552.15c0,62.22 -23.75,112.9 -71.03,151.73 -47.05,38.81 -107.48,58.21 -181.41,58.21 -63.2,0 -113.26,-8.65 -149.82,-26.3l4.63 -158.79 1.96 0c9.58,5.33 22.41,10.77 38.47,16.34 25.03,8.55 53.24,12.87 84.52,12.87 53.27,0 79.89,-21.52 79.89,-64.46 0,-23.43 -16.19,-48.64 -48.77,-75.26 -26.62,-21.14 -51.78,-43.73 -75.21,-67.47 -24.97,-24.9 -44.3,-50.08 -57.71,-75.71 -17.97,-33.84 -26.86,-69.62 -26.86,-107.14 0,-62.08 20.24,-112.89 60.51,-152.67 45.9,-45.71 111.61,-68.67 197.47,-68.67 43.07,0 78.71,4.49 106.67,13.62l-4.66 157.82 -1.96 0c-11.27,-4.63 -23.75,-8.47 -37.53,-11.69 -15.09,-3.06 -30.46,-4.65 -46.23,-4.65 -58.55,0 -87.71,21.81 -87.71,65.27 0,19.06 8.99,38.68 27.27,58.71 5.89,6.88 17.81,18.28 35.54,33.84l53.66 47.96c32.85,30.6 56.72,59.62 71.29,86.92 18.02,32.56 27.02,68.78 27.02,108.56l0 0.96zm108.55 -552.15l399.35 0 0 148.96 -221.29 0 0 147.1 195.47 0 0 149.45 -195.47 0 0 154.92 226.88 0 0 149.95 -404.94 0 0 -750.38zm586.85 -6.09l22.15 0 134.36 210.07 81.09 130.07c18.65,30.45 33.55,55.79 45.3,76.18 8.63,16.01 17.28,32.56 25.81,49.72l1.75 0c8.81,-16.53 17.65,-32.74 26.49,-48.25 11.56,-20.4 26.57,-45.74 45.5,-75.71 21.05,-33.86 48.46,-77.14 82.56,-130.23 36.14,-55.96 81.88,-126.7 137.34,-211.85l22.91 0 111.98 756.47 -181.88 0 -26.28 -189.41c-2.88,-22.44 -5.49,-45.5 -8.06,-68.96 -2.9,-30.47 -4.78,-58.53 -6.09,-84.23l-1.44 0c-12.18,26.98 -23.74,50.86 -34.8,71.57 -8.16,15.22 -18.6,33.68 -31.44,55.31 -13.15,22.96 -30.36,51.15 -51.67,84.7 -24.53,38.5 -50.79,79.11 -78.87,121.55l-23.59 0c-29.18,-43.12 -56.59,-84.65 -82.27,-124.42 -21.21,-33.53 -38.96,-62.4 -53.03,-86.46l-30.99 -56.43c-10.88,-20.71 -21.84,-42.86 -32.35,-66.74l-1.05 0c-1.59,26.31 -3.81,54.84 -6.51,85.67 -2.25,22.07 -4.86,45.35 -8.05,69.43l-22.91 188.42 -173.59 0 2.9 -16.84c1.99,-10.75 4.5,-26.75 8.08,-47.94 3.98,-25.68 9.29,-59.18 15.85,-100.57l90.8 -591.12z"/>
   <path class="fil0" d="M1388.51 53.14c22.33,0 43.93,5.76 65.18,17.28 21.24,11.16 37.81,27.73 49.69,48.97 11.89,21.25 17.65,43.58 17.65,66.62 0,22.69 -5.76,44.66 -17.65,65.9 -11.52,20.89 -27.73,37.45 -48.97,48.98 -20.89,11.88 -42.85,17.64 -65.9,17.64 -23.05,0 -45.01,-5.76 -66.26,-17.64 -20.88,-11.53 -37.45,-28.09 -48.97,-48.98 -11.89,-21.24 -17.65,-43.21 -17.65,-65.9 0,-23.04 6.12,-45.37 18.01,-66.62 11.88,-21.24 28.45,-37.81 49.69,-48.97 21.25,-11.52 42.85,-17.28 65.18,-17.28zm0 21.96c-18.72,0 -36.73,4.68 -54.38,14.41 -17.64,9.36 -31.68,23.04 -41.41,41.05 -10.08,17.64 -15.12,36.01 -15.12,55.45 0,19.09 5.04,37.45 14.76,54.74 9.73,17.64 23.41,31.33 41.05,41.05 17.65,9.72 36.01,14.76 55.1,14.76 19.09,0 37.45,-5.04 55.1,-14.76 17.64,-9.72 31.32,-23.41 41.05,-41.05 9.72,-17.29 14.4,-35.65 14.4,-54.74 0,-19.44 -5.04,-37.81 -14.76,-55.45 -10.09,-18.01 -23.77,-31.69 -41.41,-41.05 -17.65,-9.73 -36.01,-14.41 -54.38,-14.41zm-58.34 184.01l0 -142.6 48.98 0c16.92,0 29.17,1.44 36.73,3.96 7.56,2.53 13.32,7.21 18,13.69 4.32,6.48 6.49,13.68 6.49,20.88 0,10.45 -3.61,19.45 -11.17,27.37 -7.56,7.56 -17.28,11.89 -29.89,12.97 5.05,2.16 9.37,4.68 12.25,7.56 5.76,5.4 12.96,15.12 21.24,28.09l17.29 28.08 -28.09 0 -12.6 -22.32c-10.09,-18.01 -18.01,-28.81 -24.13,-33.49 -4.32,-3.24 -10.44,-4.68 -18.37,-4.68l-13.68 0 0 60.49 -23.05 0zm23.05 -80.3l28.09 0c13.32,0 22.32,-2.16 27.37,-6.12 4.68,-3.96 7.2,-9 7.2,-15.49 0,-4.32 -1.08,-7.92 -3.6,-11.52 -2.16,-3.24 -5.4,-5.76 -9.73,-7.2 -3.96,-1.8 -11.88,-2.52 -23.04,-2.52l-26.29 0 0 42.85z"/>
   <path class="fil0 str0" d="M4959.69 375.1c22.33,0 43.93,5.76 65.18,17.28 21.25,11.17 37.81,27.73 49.69,48.98 11.89,21.25 17.65,43.57 17.65,66.62 0,22.68 -5.76,44.65 -17.65,65.9 -11.52,20.88 -27.72,37.45 -48.97,48.97 -20.89,11.88 -42.85,17.65 -65.9,17.65 -23.04,0 -45.01,-5.77 -66.26,-17.65 -20.88,-11.52 -37.45,-28.09 -48.97,-48.97 -11.88,-21.25 -17.65,-43.22 -17.65,-65.9 0,-23.05 6.13,-45.37 18.01,-66.62 11.88,-21.25 28.45,-37.81 49.69,-48.98 21.25,-11.52 42.86,-17.28 65.18,-17.28zm0 21.97c-18.72,0 -36.73,4.68 -54.37,14.4 -17.65,9.36 -31.69,23.05 -41.41,41.05 -10.09,17.65 -15.13,36.01 -15.13,55.46 0,19.08 5.04,37.45 14.76,54.73 9.73,17.65 23.41,31.33 41.06,41.06 17.64,9.72 36.01,14.76 55.09,14.76 19.09,0 37.45,-5.04 55.1,-14.76 17.64,-9.73 31.33,-23.41 41.05,-41.06 9.72,-17.28 14.4,-35.65 14.4,-54.73 0,-19.45 -5.04,-37.81 -14.76,-55.46 -10.08,-18 -23.77,-31.69 -41.41,-41.05 -17.65,-9.72 -36.01,-14.4 -54.38,-14.4zm-58.33 184.01l0 -142.6 48.97 0c16.92,0 29.17,1.44 36.73,3.96 7.56,2.52 13.32,7.2 18,13.68 4.33,6.49 6.49,13.69 6.49,20.89 0,10.44 -3.6,19.45 -11.17,27.37 -7.56,7.56 -17.28,11.88 -29.89,12.96 5.05,2.16 9.37,4.68 12.25,7.56 5.76,5.4 12.96,15.13 21.24,28.09l17.29 28.09 -28.09 0 -12.6 -22.33c-10.09,-18 -18.01,-28.81 -24.13,-33.49 -4.32,-3.24 -10.44,-4.68 -18.36,-4.68l-13.69 0 0 60.5 -23.04 0zm23.04 -80.3l28.09 0c13.32,0 22.33,-2.16 27.37,-6.13 4.68,-3.96 7.2,-9 7.2,-15.48 0,-4.32 -1.08,-7.92 -3.6,-11.52 -2.16,-3.24 -5.4,-5.76 -9.72,-7.21 -3.97,-1.8 -11.89,-2.52 -23.05,-2.52l-26.29 0 0 42.86z"/>
  </g>
 </g>
</svg>
