<?xml version="1.0" encoding="UTF-8"?>
<!DOCTYPE svg PUBLIC "-//W3C//DTD SVG 1.1//EN" "http://www.w3.org/Graphics/SVG/1.1/DTD/svg11.dtd">
<!-- Creator: CorelDRAW 2021 (64-Bit) -->
<svg xmlns="http://www.w3.org/2000/svg" xml:space="preserve" width="2893px" height="2851px" version="1.1" style="shape-rendering:geometricPrecision; text-rendering:geometricPrecision; image-rendering:optimizeQuality; fill-rule:evenodd; clip-rule:evenodd"
viewBox="0 0 849 837"
 xmlns:xlink="http://www.w3.org/1999/xlink"
 xmlns:xodm="http://www.corel.com/coreldraw/odm/2003">
 <defs>
  <style type="text/css">
   <![CDATA[
    .fil0 {fill:#2099D5;fill-rule:nonzero}
   ]]>
  </style>
 </defs>
 <g id="Layer_x0020_1">
  <metadata id="CorelCorpID_0Corel-Layer"/>
  <path class="fil0" d="M794 325c-28,-16 -60,-18 -88,-9l-36 -62 -96 -166 -191 0 -72 0c-10,-49 -54,-86 -107,-86 -60,0 -109,49 -109,109 0,32 14,61 36,81l-36 62 -96 166 96 166 36 62c-37,34 -48,90 -21,135 30,52 97,70 149,40 28,-16 46,-42 52,-72l72 0 191 0 96 -166 36 -62c48,16 102,-4 128,-49 30,-52 12,-119 -40,-149zm-552 301c-23,-8 -48,-9 -72,-1l-119 -206 119 -206c11,4 23,6 35,6 13,0 26,-2 37,-6l46 80c-17,12 -31,28 -42,47 -40,70 -21,158 42,206l-46 80zm307 81l-237 0c-2,-11 -6,-22 -13,-33 -6,-11 -15,-21 -24,-29l46 -80c73,31 159,4 199,-67 11,-19 18,-39 20,-60l92 0c4,24 16,46 35,63l-119 206zm96 -342c-7,11 -11,23 -13,35l-92 0c-6,-48 -33,-92 -78,-118 -45,-26 -97,-27 -141,-9l-46 -80c19,-16 32,-37 37,-62l237 0 119 206c-9,8 -16,17 -22,27zm125 -365c13,0 26,3 39,10 13,7 22,16 30,29 7,13 10,26 10,40 0,13 -3,27 -10,39 -7,12 -16,22 -29,29 -12,7 -25,10 -39,10 -14,0 -27,-3 -39,-10 -12,-7 -22,-17 -29,-29 -7,-13 -10,-26 -10,-39 0,-14 4,-27 11,-40 7,-13 17,-22 30,-29 13,-7 25,-10 39,-10zm0 13c-11,0 -22,3 -32,9 -10,6 -19,14 -25,24 -6,10 -9,21 -9,33 0,11 3,22 9,33 6,10 14,19 24,24 10,6 21,9 33,9 11,0 22,-3 33,-9 10,-6 19,-14 24,-24 6,-10 9,-21 9,-33 0,-12 -3,-22 -9,-33 -6,-11 -14,-19 -25,-24 -10,-6 -21,-9 -32,-9zm-35 109l0 -85 29 0c10,0 17,1 22,2 5,2 8,4 11,8 3,4 4,8 4,12 0,6 -2,12 -7,16 -4,4 -10,7 -18,8 3,1 6,3 7,4 3,3 8,9 13,17l10 17 -17 0 -7 -13c-6,-11 -11,-17 -14,-20 -3,-2 -6,-3 -11,-3l-8 0 0 36 -14 0zm14 -48l17 0c8,0 13,-1 16,-4 3,-2 4,-5 4,-9 0,-3 -1,-5 -2,-7 -1,-2 -3,-3 -6,-4 -2,-1 -7,-2 -14,-2l-16 0 0 25z"/>
 </g>
</svg>
